<svg width="32" height="32" fill="none" xmlns="http://www.w3.org/2000/svg">
  <path d="M9.46 2.46 5.2 0a.9.9 0 0 1-.39.23v4.94a.9.9 0 0 1 .4.23l4.26-2.46a.9.9 0 0 1 0-.47Zm.63 6.02V3.56a.9.9 0 0 1-.4-.23L5.43 5.8c.04.15.04.3 0 .45L9.7 8.71a.9.9 0 0 1 .4-.23Zm-.63.64L5.2 6.65a.9.9 0 0 1-.39.23v4.94c.15.04.29.12.4.23l4.26-2.47a.9.9 0 0 1 0-.47v.01Zm0 6.65L5.2 13.3a.9.9 0 0 1-.39.24v4.93a.9.9 0 0 1 .4.23l4.26-2.47a.9.9 0 0 1 0-.46Zm0 6.65L5.2 19.96a.89.89 0 0 1-.39.23v4.93a.9.9 0 0 1 .4.23l4.26-2.46a.9.9 0 0 1 0-.47Zm.63-7.28V10.2a.9.9 0 0 1-.4-.23l-4.27 2.47a.9.9 0 0 1 0 .46l4.27 2.46a.9.9 0 0 1 .4-.23Zm0 6.66v-4.93a.9.9 0 0 1-.4-.23l-4.27 2.47c.04.15.04.3 0 .46l4.27 2.46a.9.9 0 0 1 .4-.23Zm0 6.65v-4.93a.9.9 0 0 1-.4-.22l-4.27 2.46c.04.15.04.3 0 .46l4.27 2.46a.9.9 0 0 1 .4-.23Zm5.13-2.7-4.27-2.47a.9.9 0 0 1-.39.23v4.93a.9.9 0 0 1 .4.24l4.26-2.47a.89.89 0 0 1 0-.47Zm.63 6.02v-4.93a.9.9 0 0 1-.4-.23l-4.27 2.47c.04.15.04.3 0 .46L15.45 32a.91.91 0 0 1 .4-.23Zm-.63-19.33-4.27-2.46a.9.9 0 0 1-.39.23v4.93c.15.04.29.12.4.23l4.26-2.46a.9.9 0 0 1 0-.47Zm.64-.64V6.88a.9.9 0 0 1-.4-.22l-4.27 2.47a.9.9 0 0 1 0 .45l4.27 2.46a.9.9 0 0 1 .4-.23Z" fill="#DE3B21"/>
  <path d="M20.98 29.07 16.7 26.6a.9.9 0 0 1-.39.24v4.93a.9.9 0 0 1 .39.23l4.27-2.46a.9.9 0 0 1 0-.47Zm.63-.63v-4.93a.9.9 0 0 1-.4-.22l-4.27 2.46c.04.15.04.31 0 .46l4.27 2.46a.9.9 0 0 1 .4-.23Zm5.76-3.33V20.2a.9.9 0 0 1-.4-.23l-4.27 2.47c.04.15.04.3 0 .46l4.27 2.46a.9.9 0 0 1 .4-.24Zm-.63.63-4.27-2.46a.9.9 0 0 1-.39.23v4.93a.9.9 0 0 1 .39.23l4.27-2.46a.9.9 0 0 1-.03-.23c0-.08 0-.16.03-.24Zm0-6.65-4.27-2.46c-.1.1-.24.19-.39.23v4.93c.15.04.28.12.39.23l4.27-2.46a.9.9 0 0 1 0-.47Zm0-6.65-4.27-2.47c-.1.11-.24.2-.39.24v4.93c.15.04.28.12.39.23l4.27-2.46a.9.9 0 0 1-.03-.24c0-.08 0-.16.03-.23Zm.63 6.02v-4.92a.89.89 0 0 1-.4-.23l-4.27 2.47c.04.15.04.3 0 .45l4.27 2.47a.9.9 0 0 1 .4-.24Zm-6.39-9.34-4.27-2.47a.9.9 0 0 1-.39.23v4.94c.15.04.29.12.4.23l4.26-2.47a.89.89 0 0 1 0-.47v.01Zm.63 6.02V10.2a.9.9 0 0 1-.4-.23l-4.27 2.47a.9.9 0 0 1 0 .46l4.27 2.46a.9.9 0 0 1 .4-.23Z" fill="#424A52"/>
</svg>
